<?xml version="1.0" encoding="utf-8"?>
<!-- Generator: Adobe Illustrator 28.0.0, SVG Export Plug-In . SVG Version: 6.00 Build 0)  -->
<svg version="1.1" id="Antenne" xmlns="http://www.w3.org/2000/svg" xmlns:xlink="http://www.w3.org/1999/xlink" x="0px" y="0px"
	 viewBox="0 0 629 834" style="enable-background:new 0 0 629 834;" xml:space="preserve">
<style type="text/css">
	.st0{fill:#000000;}
</style>
<path class="st0" d="M614.5,91.8c-28.8-58.1-149.3-63.1-285.4-14.2c-25.4-17.1-46.4-31.1-57.2-38.4l-8.1-19.4L233.6,7
	c0,0-13.9,0-25.5,5.8c-13.5,6.8-23.2,15.1-23.2,15.1l-9.7,32.5l4.7,8.9l-15.8,91.9c-112.8,75.9-177,166.4-149.4,222
	c7,14.1,19.2,24.8,35.8,32.3l21.7,11.7l147.5,23.2l64.2-11.8c6.6,24,20.5,44.9,39,60c-0.3,0.5-0.4,1.1-0.5,1.7l0.1,10.9
	c0,0.6,0.6,0.9,1.1,0.7c0.1-0.1,0.2-0.1,0.4-0.2c-0.1,0-0.2,0.1-0.3,0.2v21.7c0.3-0.3,0.6-0.5,1-0.7c-1.3,0.7-2.2,2-2.2,3.4
	l-0.5,13.3h0.1l0.5-1.2l-32.2,72.8c-0.7,0.3-1.4,0.5-2.1,0.8c-0.4,0.2-0.7,0.6-0.7,1.1v3.3c0,0.8,0.8,1.4,1.6,1.1
	c0.1,0,0.2-0.1,0.3-0.1l-0.3,92.6c-0.3,0.1-0.6,0.2-0.9,0.2c-0.4,0.1-0.7,0.4-0.7,0.8v3.4c0,0.6,0.8,1,1.6,0.7c0,0,0,0,0,0l-0.3,101
	h213.7V725.9c0.6,0,1.2-0.3,1.2-0.8v-3.4c0-0.3-0.3-0.6-0.7-0.8c-0.2,0-0.3-0.1-0.4-0.1v-92.4c0.6,0,1.2-0.5,1.2-1.2v-3.3
	c0-0.5-0.3-0.9-0.7-1.1c-0.1,0-0.2-0.1-0.3-0.1L470,548.4l0.5,1.2l-0.4-13.3c0-1.5-1-2.7-2.2-3.4c0.3,0.2,0.7,0.4,1,0.7v-21.7
	c-0.1,0-0.2-0.1-0.2-0.1c0.1,0,0.2,0.1,0.3,0.2c0.5,0.2,1.1-0.1,1.1-0.7l0.1-10.9c0-0.8-0.3-1.7-0.8-2.3
	c13.8-11.7,25-26.5,32.3-43.5c0,0,0,0,0,0l0,0c6.3-14.6,9.8-30.7,9.8-47.6c0-24.7-7.4-47.6-20.1-66.6l39.7-32.4l88.3-145.2l1.6-46.1
	C620.4,107.8,618.4,99.5,614.5,91.8L614.5,91.8z M255.7,103.4c22.3-11.8,30.6-21.2,33.6-27.2l0.1,0.5l14.5,10.5
	c-17.2,6.9-34.5,14.7-51.9,23.3c-11,5.5-21.8,11.1-32.3,16.9l-0.9-11.8C228.1,114.7,240.4,111.5,255.7,103.4L255.7,103.4z
	 M193.6,95.7l2.8,5.4v11.6c0,0,2.9,1.7,8.6,2.6l1.6,19.5c-7.8,4.5-15.4,9.1-22.9,13.8L193.6,95.7L193.6,95.7z M159.3,436.7
	L159.3,436.7L159.3,436.7L159.3,436.7z M371.1,349.4c-157.3,77.9-311.1,88-343.6,22.5C1.8,319.9,60,236.1,163.5,164.7l-18.2,105.9
	l11.6,4.6l3.5-2.3l22.7-121.2c7.7-4.9,15.6-9.7,23.7-14.5l19.8,247.2h5l6.6-2.3l-18.4-252.3c10.9-6.1,22.2-12,33.7-17.8
	c17.5-8.7,35-16.5,52.4-23.4l76.4,55.4h3.7l3.4-7.1L510,218.4l11.6-7v-3.9c0-0.5-113.8-77.1-190.2-128.4
	c127.8-44.9,240.4-39.6,267.4,15C631.3,159.6,528.4,271.4,371.1,349.4L371.1,349.4z"/>
<path class="st0" d="M368.1,250.5c0.2-0.5,0.3-0.8,0.3-0.8l-0.6,0.3l-48-67.1l0,0l-12-16.8c-2.2-4.3-13.7-2.9-25.7,3.2
	c-12,6-20,14.4-17.9,18.7l28.4,98.4l-0.8,0.4c0,0,0.3,0,1,0.1l1.8,6.1c1.3,4.4,3.2,8.5,5.8,12.3l0,0c34,2,62.3-8.8,75-39.3
	c-0.8-4.6-2.6-8.9-5.3-12.7L368.1,250.5L368.1,250.5z"/>
</svg>
